HIERARCHY
ROOT Hips
{
	OFFSET 0.00000 0.00000 0.00000
	CHANNELS 6 Xposition Yposition Zposition Zrotation Yrotation Xrotation 
	JOINT LHipJoint
	{
		OFFSET 0 0 0
		CHANNELS 3 Zrotation Yrotation Xrotation
		JOINT LeftUpLeg
		{
			OFFSET 1.55766 -1.60504 1.11378
			CHANNELS 3 Zrotation Yrotation Xrotation
			JOINT LeftLeg
			{
				OFFSET 2.29047 -6.29302 0.00000
				CHANNELS 3 Zrotation Yrotation Xrotation
				JOINT LeftFoot
				{
					OFFSET 2.52265 -6.93093 0.00000
					CHANNELS 3 Zrotation Yrotation Xrotation
					JOINT LeftToeBase
					{
						OFFSET 0.17633 -0.48446 2.02656
						CHANNELS 3 Zrotation Yrotation Xrotation
						End Site
						{
							OFFSET 0.00000 -0.00000 1.04989
						}
					}
				}
			}
		}
	}
	JOINT RHipJoint
	{
		OFFSET 0 0 0
		CHANNELS 3 Zrotation Yrotation Xrotation
		JOINT RightUpLeg
		{
			OFFSET -1.48599 -1.60504 1.11378
			CHANNELS 3 Zrotation Yrotation Xrotation
			JOINT RightLeg
			{
				OFFSET -2.27280 -6.24448 0.00000
				CHANNELS 3 Zrotation Yrotation Xrotation
				JOINT RightFoot
				{
					OFFSET -2.50834 -6.89161 0.00000
					CHANNELS 3 Zrotation Yrotation Xrotation
					JOINT RightToeBase
					{
						OFFSET -0.26967 -0.74090 2.08741
						CHANNELS 3 Zrotation Yrotation Xrotation
						End Site
						{
							OFFSET -0.00000 -0.00000 1.10614
						}
					}
				}
			}
		}
	}
	JOINT LowerBack
	{
		OFFSET 0 0 0
		CHANNELS 3 Zrotation Yrotation Xrotation
		JOINT Spine
		{
			OFFSET 0.06481 2.02437 -0.08472
			CHANNELS 3 Zrotation Yrotation Xrotation
			JOINT Spine1
			{
				OFFSET 0.00015 1.96711 0.18069
				CHANNELS 3 Zrotation Yrotation Xrotation
				JOINT Neck
				{
					OFFSET 0 0 0
					CHANNELS 3 Zrotation Yrotation Xrotation
					JOINT Neck1
					{
						OFFSET -0.29961 1.68293 -0.13041
						CHANNELS 3 Zrotation Yrotation Xrotation
						JOINT Head
						{
							OFFSET 0.59697 1.61501 -0.14669
							CHANNELS 3 Zrotation Yrotation Xrotation
							End Site
							{
								OFFSET 0.22973 1.74906 -0.10148
							}
						}
					}
				}
				JOINT LeftShoulder
				{
					OFFSET 0 0 0
					CHANNELS 3 Zrotation Yrotation Xrotation
					JOINT LeftArm
					{
						OFFSET 3.37968 1.02893 0.31147
						CHANNELS 3 Zrotation Yrotation Xrotation
						JOINT LeftForeArm
						{
							OFFSET 5.19807 -0.00000 -0.00000
							CHANNELS 3 Zrotation Yrotation Xrotation
							JOINT LeftHand
							{
								OFFSET 3.09370 -0.00000 -0.00000
								CHANNELS 3 Zrotation Yrotation Xrotation
								JOINT LeftFingerBase
								{
									OFFSET 0 0 0
									CHANNELS 3 Zrotation Yrotation Xrotation
									JOINT LeftHandIndex1
									{
										OFFSET 0.67263 -0.00000 -0.00000
										CHANNELS 3 Zrotation Yrotation Xrotation
										End Site
										{
											OFFSET 0.54229 -0.00000 -0.00000
										}
									}
								}
								JOINT LThumb
								{
									OFFSET 0 0 0
									CHANNELS 3 Zrotation Yrotation Xrotation
									End Site
									{
										OFFSET 0.55057 -0.00000 0.55057
									}
								}
							}
						}
					}
				}
				JOINT RightShoulder
				{
					OFFSET 0 0 0
					CHANNELS 3 Zrotation Yrotation Xrotation
					JOINT RightArm
					{
						OFFSET -3.38254 0.96355 -0.16120
						CHANNELS 3 Zrotation Yrotation Xrotation
						JOINT RightForeArm
						{
							OFFSET -5.45222 -0.00000 -0.00000
							CHANNELS 3 Zrotation Yrotation Xrotation
							JOINT RightHand
							{
								OFFSET -3.01284 -0.00000 -0.00000
								CHANNELS 3 Zrotation Yrotation Xrotation
								JOINT RightFingerBase
								{
									OFFSET 0 0 0
									CHANNELS 3 Zrotation Yrotation Xrotation
									JOINT RightHandIndex1
									{
										OFFSET -0.62230 -0.00000 -0.00000
										CHANNELS 3 Zrotation Yrotation Xrotation
										End Site
										{
											OFFSET -0.50171 -0.00000 -0.00000
										}
									}
								}
								JOINT RThumb
								{
									OFFSET 0 0 0
									CHANNELS 3 Zrotation Yrotation Xrotation
									End Site
									{
										OFFSET -0.50937 -0.00000 0.50937
									}
								}
							}
						}
					}
				}
			}
		}
	}
}
MOTION
Frames: 9
Frame Time: .0083333
1.4455 15.9941 27.7913 0 0 0 0 0 0 -21 0 0 0 0 0 0 0 0 0 0 0 0 0 0 21 0 0 0 0 0 0 0 0 0 0 0 0 0 0 0 0 0 0 0 0 0 0 -16 0 0 21 0 0 11 0 0 0 -8 0 0 0 0 0 0 0 0 0 0 0 0 0 0 0 0 0 0 0 0 8 0 0 0 0 0 0 0 0 0 0 0 0 0 0 0 0 0
1.4455 15.9941 27.7913 -124.5660 -80.0234 136.9980 0.0000 0.0000 0.0000 -13.1591 -1.4404 -28.0288 3.2896 11.1497 32.7864 1.0493 -7.4376 -18.3030 0.8690 -5.9436 -16.6209 0.0000 0.0000 0.0000 30.5357 -3.6004 -22.9140 -1.6082 -7.9973 22.7059 0.1795 19.8967 -12.4564 -0.3453 3.7758 -10.4466 7.8536 4.1769 -13.4153 -0.9182 4.2845 -6.2697 -4.7434 1.8654 1.5111 -29.7795 -7.9652 20.9139 43.8909 -18.5067 -7.8425 23.6563 -12.4899 2.2302 0.0000 0.0000 0.0000 -84.1332 12.2342 43.1153 17.8248 -27.9322 -4.4669 -0.0000 0.0000 -36.1228 16.6955 -12.5815 -3.7380 -7.1250 0.0000 -0.0000 -7.3206 16.9304 4.9120 0.0000 0.0000 0.0000 91.5473 -5.8269 39.9532 -13.4311 21.9156 -2.6120 0.0000 0.0000 23.2878 -7.7672 1.6446 -0.2243 7.1250 -0.0000 -0.0000 14.4624 -28.1986 6.0918
1.4465 15.9940 27.7915 -124.5140 -80.0789 136.9510 0.0000 0.0000 0.0000 -13.2014 -1.4577 -28.0300 3.2866 11.1451 32.7708 1.0480 -7.4707 -18.2930 0.8602 -5.9142 -16.5357 0.0000 0.0000 0.0000 30.4909 -3.5911 -22.9451 -1.6146 -8.0124 22.7519 0.1678 19.8355 -12.5118 -0.3497 3.7998 -10.5140 7.7872 4.1700 -13.4006 -0.9225 4.2858 -6.2618 -4.7110 1.8677 1.5082 -29.7692 -7.9764 20.9191 43.8799 -18.5097 -7.8636 23.6421 -12.4895 2.2218 -0.0000 0.0000 0.0000 -84.1435 12.2093 43.1380 17.8161 -27.9210 -4.4628 -0.0000 0.0000 -36.1328 16.7548 -12.6405 -3.7693 -7.1250 0.0000 -0.0000 -7.2799 16.8651 4.8947 -0.0000 0.0000 0.0000 91.5953 -5.8046 39.6835 -13.4051 21.8779 -2.6023 0.0000 0.0000 23.5024 -7.7337 1.7253 -0.2343 7.1250 -0.0000 -0.0000 14.4771 -28.1195 6.1264
1.4471 15.9936 27.7925 -124.3020 -80.1327 136.7560 0.0000 0.0000 0.0000 -13.2400 -1.4023 -28.0916 3.2868 11.1454 32.7718 1.0450 -7.5994 -18.2735 0.8672 -5.9378 -16.6041 0.0000 0.0000 0.0000 30.4668 -3.5814 -22.9679 -1.6161 -8.0160 22.7626 0.1563 19.7711 -12.5639 -0.3591 3.8496 -10.6538 7.7510 4.1415 -13.4015 -0.9122 4.2524 -6.2595 -4.6853 1.8517 1.5036 -29.7826 -7.9596 20.9149 43.8476 -18.4757 -7.8599 23.6290 -12.4655 2.2036 0.0000 0.0000 0.0000 -84.1758 12.2127 43.0712 17.8122 -27.9160 -4.4610 -0.0000 0.0000 -36.0453 16.7307 -12.6189 -3.7572 -7.1250 0.0000 -0.0000 -7.2964 16.8892 4.9022 0.0000 0.0000 0.0000 91.5921 -5.7896 39.6217 -13.3803 21.8419 -2.5931 0.0000 0.0000 23.6145 -7.7891 1.7405 -0.2380 7.1250 -0.0000 -0.0000 14.4332 -28.1052 6.1118
1.4480 15.9942 27.7943 -123.8520 -80.1603 136.3310 0.0000 0.0000 0.0000 -13.2044 -1.4822 -28.1109 3.2870 11.1457 32.7728 1.0423 -7.6193 -18.2504 0.8609 -5.9166 -16.5426 0.0000 0.0000 0.0000 30.4857 -3.5615 -22.9955 -1.6180 -8.0205 22.7765 0.1506 19.7074 -12.5643 -0.3509 3.8062 -10.5320 7.7841 4.1455 -13.3943 -0.9240 4.2552 -6.2573 -4.7162 1.8529 1.5052 -29.8006 -7.9613 20.9173 43.8646 -18.4897 -7.8495 23.6454 -12.4754 2.2183 0.0000 0.0000 0.0000 -84.1548 12.1904 43.1052 17.8128 -27.9168 -4.4612 -0.0000 0.0000 -36.0621 16.7763 -12.5795 -3.7565 -7.1250 0.0000 -0.0000 -7.2646 16.9262 4.8745 0.0000 0.0000 0.0000 91.6462 -5.7547 39.4043 -13.3488 21.7961 -2.5814 0.0000 0.0000 23.7793 -7.7739 1.7917 -0.2446 7.1250 -0.0000 -0.0000 14.4380 -28.0550 6.1317
1.4487 15.9943 27.7956 -123.5130 -80.1943 136.0120 0.0000 0.0000 0.0000 -13.1982 -1.4964 -28.1500 3.2884 11.1479 32.7803 1.0404 -7.6825 -18.2377 0.8618 -5.9197 -16.5515 0.0000 0.0000 0.0000 30.4918 -3.5631 -23.0221 -1.6189 -8.0226 22.7827 0.1458 19.6659 -12.5752 -0.3487 3.7944 -10.4989 7.7890 4.1414 -13.3876 -0.9291 4.2504 -6.2550 -4.7254 1.8507 1.5041 -29.8098 -7.9604 20.9256 43.8645 -18.4905 -7.8502 23.6493 -12.4761 2.2183 0.0000 0.0000 0.0000 -84.1497 12.1762 43.1145 17.8109 -27.9144 -4.4604 -0.0000 0.0000 -36.0490 16.8072 -12.5608 -3.7583 -7.1250 0.0000 -0.0000 -7.2431 16.9432 4.8572 0.0000 0.0000 0.0000 91.6696 -5.7357 39.2815 -13.3314 21.7709 -2.5749 0.0000 0.0000 23.8797 -7.7684 1.8344 -0.2502 7.1250 -0.0000 -0.0000 14.4365 -28.0132 6.1457
1.4494 15.9941 27.7967 -123.1330 -80.2212 135.6540 0.0000 0.0000 0.0000 -13.1828 -1.4990 -28.1971 3.2908 11.1516 32.7929 1.0387 -7.7560 -18.2270 0.8646 -5.9292 -16.5790 0.0000 0.0000 0.0000 30.5090 -3.5704 -23.0470 -1.6188 -8.0222 22.7816 0.1430 19.6354 -12.5758 -0.3450 3.7741 -10.4421 7.8051 4.1401 -13.3788 -0.9348 4.2482 -6.2540 -4.7412 1.8494 1.5013 -29.8182 -7.9596 20.9376 43.8674 -18.4937 -7.8494 23.6555 -12.4790 2.2194 -0.0000 0.0000 0.0000 -84.1406 12.1625 43.1228 17.8081 -27.9108 -4.4591 -0.0000 0.0000 -36.0343 16.8260 -12.5384 -3.7562 -7.1250 0.0000 -0.0000 -7.2299 16.9648 4.8447 -0.0000 0.0000 0.0000 91.6823 -5.7241 39.2188 -13.3241 21.7603 -2.5722 0.0000 0.0000 23.9215 -7.7623 1.8650 -0.2542 7.1250 -0.0000 -0.0000 14.4371 -27.9832 6.1566
1.4501 15.9939 27.7976 -122.7510 -80.2444 135.2920 0.0000 0.0000 0.0000 -13.1643 -1.4946 -28.2476 3.2941 11.1566 32.8100 1.0374 -7.8351 -18.2202 0.8672 -5.9378 -16.6042 0.0000 0.0000 0.0000 30.5301 -3.5777 -23.0721 -1.6189 -8.0226 22.7827 0.1404 19.6070 -12.5770 -0.3408 3.7511 -10.3775 7.8217 4.1416 -13.3672 -0.9416 4.2499 -6.2541 -4.7580 1.8500 1.4968 -29.8197 -7.9631 20.9529 43.8707 -18.5023 -7.8500 23.6586 -12.4850 2.2211 0.0000 -0.0000 0.0000 -84.1262 12.1488 43.1389 17.8053 -27.9071 -4.4577 -0.0000 0.0000 -36.0279 16.8415 -12.5186 -3.7540 -7.1250 0.0000 -0.0000 -7.2191 16.9840 4.8343 0.0000 -0.0000 0.0000 91.6803 -5.7219 39.2341 -13.3308 21.7700 -2.5747 0.0000 0.0000 23.8861 -7.7516 1.8805 -0.2559 7.1250 -0.0000 -0.0000 14.4432 -27.9680 6.1648
1.4509 15.9933 27.7979 -122.3430 -80.2552 134.9060 0.0000 0.0000 0.0000 -13.1319 -1.4724 -28.3100 3.2989 11.1639 32.8348 1.0360 -7.9325 -18.2149 0.8679 -5.9403 -16.6112 0.0000 0.0000 0.0000 30.5645 -3.5669 -23.0873 -1.6182 -8.0209 22.7776 0.1356 19.5603 -12.5841 -0.3387 3.7397 -10.3455 7.8423 4.1444 -13.3531 -0.9424 4.2530 -6.2558 -4.7708 1.8510 1.4890 -29.8180 -7.9683 20.9677 43.8706 -18.5119 -7.8495 23.6572 -12.4911 2.2227 0.0000 0.0000 0.0000 -84.1124 12.1371 43.1550 17.8029 -27.9041 -4.4566 -0.0000 0.0000 -36.0237 16.8497 -12.5030 -3.7514 -7.1250 0.0000 -0.0000 -7.2133 16.9993 4.8279 0.0000 0.0000 0.0000 91.6586 -5.7296 39.3314 -13.3501 21.7980 -2.5818 0.0000 0.0000 23.7790 -7.7431 1.8743 -0.2548 7.1250 -0.0000 -0.0000 14.4504 -27.9740 6.1659
